# xmcd
#
# Track frame offsets:
#	182
#	16430
#	33280
#	49060
#	63392
#	95365
#	115527
#	137952
#	156955
#	171787
#	186892
#	213710
#
# Disc length: 3049 seconds
#
# Revision: 1
# Processed by: cddbd v1.5.2PL0 Copyright (c) Steve Scherf et al.
# Submitted via: audiograbber 1.83.01
#
DISCID=a40be70c
DTITLE=Grant and Forsyth - Country Christmas
DYEAR=1990
DGENRE=Kerst
TTITLE0=The Greatest Gift Of All - [1990]
TTITLE1=White Christmas - [1990]
TTITLE2=It's Gonna Be A Cold , Cold Christmas (Without You) - [1990]
TTITLE3=Mary's Boy Child - [1990]
TTITLE4=Medley - Winter Wonderland-Rudolph The Red-Nosed Reindeer-Let It Snow, L
TTITLE4=et It Snow-I Saw Mommy Kissi - [1990]
TTITLE5=Tennesee Christmas - [1990]
TTITLE6=Little Drummer Boy - [1990]
TTITLE7=Have Yourself A Merry Little Christmas - [1990]
TTITLE8=It Must Be Christmas - [1990]
TTITLE9=When A Child Is Born - [1990]
TTITLE10=Medley - Silent Night-The First Noel-Oh Come Ye All Faithfull-Angels Fo
TTITLE10=rm The Realm Of Glory - [1990]
TTITLE11=Christmas Song - [1990]
EXTD=
EXTT0=
EXTT1=
EXTT2=
EXTT3=
EXTT4=
EXTT5=
EXTT6=
EXTT7=
EXTT8=
EXTT9=
EXTT10=
EXTT11=
PLAYORDER=
